<?xml version="1.0" encoding="UTF-8"?>
<svg
  xmlns="http://www.w3.org/2000/svg"
  width="256"
  height="256"
  viewBox="0 0 256 256"
  role="img"
  aria-labelledby="title desc"
>
  <title id="title">Developer avatar with laptop and Linux sticker</title>
  <desc id="desc">A friendly developer character holding a laptop with a Linux Tux sticker, inside a soft gradient circle.</desc>

  <defs>
    <linearGradient id="bgGradient" x1="0" y1="0" x2="1" y2="1">
      <stop offset="0%" stop-color="#0ea5e9"/>
      <stop offset="100%" stop-color="#6366f1"/>
    </linearGradient>

    <radialGradient id="spotlight" cx="35%" cy="30%" r="70%">
      <stop offset="0%" stop-color="#ffffff" stop-opacity="0.22"/>
      <stop offset="100%" stop-color="#ffffff" stop-opacity="0"/>
    </radialGradient>

    <filter id="softShadow" x="-30%" y="-30%" width="160%" height="160%">
      <feDropShadow dx="0" dy="6" stdDeviation="8" flood-color="#0b1026" flood-opacity="0.35"/>
    </filter>

    <clipPath id="circleClip">
      <circle cx="128" cy="128" r="116"/>
    </clipPath>

    <!-- Simple Tux sticker group -->
    <g id="tux-sticker">
      <!-- belly -->
      <ellipse cx="0" cy="6" rx="9" ry="10" fill="#ffffff"/>
      <!-- body -->
      <ellipse cx="0" cy="0" rx="10" ry="12" fill="#111827"/>
      <!-- face -->
      <ellipse cx="0" cy="-6" rx="6.5" ry="6" fill="#fde68a"/>
      <!-- eyes -->
      <circle cx="-2.2" cy="-7" r="1.3" fill="#111827"/>
      <circle cx="2.2" cy="-7" r="1.3" fill="#111827"/>
      <!-- beak -->
      <path d="M-2.5 -4.5 L0 -3 L2.5 -4.5 Q0 -2.5 -2.5 -4.5 Z" fill="#f59e0b"/>
      <!-- feet -->
      <ellipse cx="-4.5" cy="12" rx="3" ry="2" fill="#f59e0b"/>
      <ellipse cx="4.5" cy="12" rx="3" ry="2" fill="#f59e0b"/>
    </g>
  </defs>

  <!-- Background circle with gradient and soft shadow -->
  <g filter="url(#softShadow)">
    <circle cx="128" cy="128" r="116" fill="url(#bgGradient)"/>
    <circle cx="128" cy="128" r="116" fill="url(#spotlight)"/>
  </g>

  <!-- Subtle ring -->
  <circle cx="128" cy="128" r="116" fill="none" stroke="#e2f3ff" stroke-opacity="0.25" stroke-width="2"/>

  <!-- Character and laptop inside the circle -->
  <g clip-path="url(#circleClip)">
    <!-- shoulders/jacket -->
    <path d="M36 208c16-32 60-54 92-54s76 22 92 54v36H36z" fill="#0f172a"/>

    <!-- hoodie -->
    <path d="M80 200c10-28 28-44 48-44s38 16 48 44" fill="#111827"/>

    <!-- neck -->
    <rect x="116" y="130" width="24" height="18" rx="6" fill="#f6c7a6"/>

    <!-- head -->
    <ellipse cx="128" cy="112" rx="34" ry="36" fill="#f6c7a6"/>

    <!-- hair -->
    <path d="M96 110c0-22 14-36 32-36s32 14 32 30c-7-5-16-9-30-9s-25 3.6-34 10.6z" fill="#0b132b"/>

    <!-- brows -->
    <rect x="108" y="112" width="13" height="3" rx="1.5" fill="#1f2937"/>
    <rect x="139" y="112" width="13" height="3" rx="1.5" fill="#1f2937"/>

    <!-- eyes -->
    <circle cx="114" cy="120" r="2.2" fill="#0b132b"/>
    <circle cx="142" cy="120" r="2.2" fill="#0b132b"/>

    <!-- mouth -->
    <path d="M118 132c6 6 16 6 20 0" stroke="#b57e6d" stroke-width="2" fill="none" stroke-linecap="round"/>

    <!-- laptop base -->
    <rect x="76" y="156" width="104" height="62" rx="8" fill="#111827" stroke="#1f2937" stroke-width="2"/>
    <rect x="90" y="170" width="76" height="34" rx="4" fill="#0b1220"/>

    <!-- Linux sticker on laptop -->
    <g transform="translate(152,178) scale(0.9)">
      <use href="#tux-sticker"/>
    </g>

    <!-- hands on laptop -->
    <ellipse cx="102" cy="190" rx="9" ry="6" fill="#f4bfa0"/>
    <ellipse cx="154" cy="190" rx="9" ry="6" fill="#f4bfa0"/>
  </g>

  <!-- shadow -->
  <ellipse cx="128" cy="232" rx="76" ry="10" fill="#0b1026" opacity="0.18"/>
</svg>